<?xml version="1.0" encoding="utf-8"?>
<!-- Generator: Adobe Illustrator 27.9.4, SVG Export Plug-In . SVG Version: 9.03 Build 54784)  -->
<svg version="1.1" id="Layer_1" xmlns="http://www.w3.org/2000/svg" xmlns:xlink="http://www.w3.org/1999/xlink" x="0px" y="0px"
	 viewBox="0 0 168.77 177.18" style="enable-background:new 0 0 168.77 177.18;" xml:space="preserve">
<style type="text/css">
	.st0{fill:#FFFFFF;}
</style>
<path class="st0" d="M83.4,130.11c-22.54-0.05-40.77-18.25-40.73-40.65c0.04-22.78,18.31-40.98,41.03-40.88
	c22.73,0.1,40.86,18.45,40.72,41.19C124.28,112.17,105.99,130.16,83.4,130.11z M83.79,123.44c19.28,0.64,34.8-16.17,33.95-36.19
	c-0.76-17.83-17.46-33.58-33.95-31.68C83.79,78.05,83.79,100.58,83.79,123.44z"/>
<path d="M83.79,123.44c0-22.86,0-45.39,0-67.87c16.49-1.9,33.19,13.85,33.95,31.68C118.6,107.27,103.08,124.08,83.79,123.44z"/>
<path class="st0" d="M32.48,92.24H5.66c-1.79,0-3.26-1.47-3.26-3.26l0,0c0-1.79,1.47-3.26,3.26-3.26h26.82
	c1.79,0,3.26,1.47,3.26,3.26l0,0C35.74,90.77,34.27,92.24,32.48,92.24z"/>
<path class="st0" d="M161.01,92.24h-26.82c-1.79,0-3.26-1.47-3.26-3.26l0,0c0-1.79,1.47-3.26,3.26-3.26h26.82
	c1.79,0,3.26,1.47,3.26,3.26l0,0C164.26,90.77,162.8,92.24,161.01,92.24z"/>
<path class="st0" d="M49.68,127.24L30.72,146.2c-1.27,1.27-3.34,1.27-4.61,0h0c-1.27-1.27-1.27-3.34,0-4.61l18.96-18.96
	c1.27-1.27,3.34-1.27,4.61,0l0,0C50.94,123.9,50.94,125.98,49.68,127.24z"/>
<path class="st0" d="M140.56,36.36L121.6,55.32c-1.27,1.27-3.34,1.27-4.61,0l0,0c-1.27-1.27-1.27-3.34,0-4.61l18.96-18.96
	c1.27-1.27,3.34-1.27,4.61,0l0,0C141.83,33.02,141.83,35.09,140.56,36.36z"/>
<path class="st0" d="M86.59,139.83v26.82c0,1.79-1.47,3.26-3.26,3.26h0c-1.79,0-3.26-1.47-3.26-3.26v-26.82
	c0-1.79,1.47-3.26,3.26-3.26h0C85.13,136.58,86.59,138.04,86.59,139.83z"/>
<path class="st0" d="M86.59,11.31v26.82c0,1.79-1.47,3.26-3.26,3.26h0c-1.79,0-3.26-1.47-3.26-3.26V11.31
	c0-1.79,1.47-3.26,3.26-3.26h0C85.13,8.05,86.59,9.51,86.59,11.31z"/>
<path class="st0" d="M121.6,122.63l18.96,18.96c1.27,1.27,1.27,3.34,0,4.61h0c-1.27,1.27-3.34,1.27-4.61,0l-18.96-18.96
	c-1.27-1.27-1.27-3.34,0-4.61l0,0C118.26,121.37,120.33,121.37,121.6,122.63z"/>
<path class="st0" d="M30.72,31.75l18.96,18.96c1.27,1.27,1.27,3.34,0,4.61l0,0c-1.27,1.27-3.34,1.27-4.61,0L26.11,36.36
	c-1.27-1.27-1.27-3.34,0-4.61l0,0C27.37,30.48,29.45,30.48,30.72,31.75z"/>
</svg>
